solid OpenSCAD_Model
  facet normal -1 0 0
    outer loop
      vertex -25 -31 -2
      vertex -25 31 -1
      vertex -25 31 -2
    endloop
  endfacet
  facet normal -1 -0 0
    outer loop
      vertex -25 31 -1
      vertex -25 -31 -2
      vertex -25 -31 -1
    endloop
  endfacet
  facet normal 0 0 -1
    outer loop
      vertex 25 -31 -2
      vertex 20 -26 -2
      vertex 25 31 -2
    endloop
  endfacet
  facet normal 0 0 -1
    outer loop
      vertex 25 -31 -2
      vertex -20 -26 -2
      vertex 20 -26 -2
    endloop
  endfacet
  facet normal -0 0 -1
    outer loop
      vertex -20 -26 -2
      vertex -25 -31 -2
      vertex -20 26 -2
    endloop
  endfacet
  facet normal 0 0 -1
    outer loop
      vertex -25 -31 -2
      vertex -20 -26 -2
      vertex 25 -31 -2
    endloop
  endfacet
  facet normal 0 0 -1
    outer loop
      vertex 20 26 -2
      vertex 25 31 -2
      vertex 20 -26 -2
    endloop
  endfacet
  facet normal 0 0 -1
    outer loop
      vertex -20 26 -2
      vertex 25 31 -2
      vertex 20 26 -2
    endloop
  endfacet
  facet normal 0 0 -1
    outer loop
      vertex -20 26 -2
      vertex -25 31 -2
      vertex 25 31 -2
    endloop
  endfacet
  facet normal 0 0 -1
    outer loop
      vertex -25 31 -2
      vertex -20 26 -2
      vertex -25 -31 -2
    endloop
  endfacet
  facet normal 1 -0 0
    outer loop
      vertex 25 -31 -1
      vertex 25 31 -2
      vertex 25 31 -1
    endloop
  endfacet
  facet normal 1 0 0
    outer loop
      vertex 25 31 -2
      vertex 25 -31 -1
      vertex 25 -31 -2
    endloop
  endfacet
  facet normal 0 -1 0
    outer loop
      vertex -25 -31 -2
      vertex 25 -31 -1
      vertex -25 -31 -1
    endloop
  endfacet
  facet normal 0 -1 -0
    outer loop
      vertex 25 -31 -1
      vertex -25 -31 -2
      vertex 25 -31 -2
    endloop
  endfacet
  facet normal 0 0 1
    outer loop
      vertex -22 31 2
      vertex -22.5 31 2
      vertex -22 -28.5 2
    endloop
  endfacet
  facet normal 0 0 1
    outer loop
      vertex 22 -28.5 2
      vertex 22.5 31 2
      vertex 22 31 2
    endloop
  endfacet
  facet normal 0 0 1
    outer loop
      vertex 22.5 31 2
      vertex 22 -28.5 2
      vertex 22.5 -29 2
    endloop
  endfacet
  facet normal -0 0 1
    outer loop
      vertex -22 -28.5 2
      vertex 22.5 -29 2
      vertex 22 -28.5 2
    endloop
  endfacet
  facet normal 0 0 1
    outer loop
      vertex -22 -28.5 2
      vertex -22.5 -29 2
      vertex 22.5 -29 2
    endloop
  endfacet
  facet normal 0 0 1
    outer loop
      vertex -22.5 -29 2
      vertex -22 -28.5 2
      vertex -22.5 31 2
    endloop
  endfacet
  facet normal 0 1 -0
    outer loop
      vertex 25 31 -2
      vertex 22.5 31 -1
      vertex 25 31 -1
    endloop
  endfacet
  facet normal 0 1 0
    outer loop
      vertex 22.5 31 -1
      vertex 25 31 -2
      vertex 22 31 -1
    endloop
  endfacet
  facet normal 0 1 0
    outer loop
      vertex 22 31 -1
      vertex 25 31 -2
      vertex -22 31 -1
    endloop
  endfacet
  facet normal 0 1 0
    outer loop
      vertex -25 31 -2
      vertex -22 31 -1
      vertex 25 31 -2
    endloop
  endfacet
  facet normal 0 1 0
    outer loop
      vertex -22 31 -1
      vertex -25 31 -2
      vertex -22.5 31 -1
    endloop
  endfacet
  facet normal 0 1 0
    outer loop
      vertex -22.5 31 -1
      vertex -25 31 -2
      vertex -25 31 -1
    endloop
  endfacet
  facet normal 0 1 -0
    outer loop
      vertex 22.5 31 -1
      vertex 22 31 2
      vertex 22.5 31 2
    endloop
  endfacet
  facet normal 0 1 0
    outer loop
      vertex 22 31 2
      vertex 22.5 31 -1
      vertex 22 31 -1
    endloop
  endfacet
  facet normal 0 1 -0
    outer loop
      vertex -22 31 -1
      vertex -22.5 31 2
      vertex -22 31 2
    endloop
  endfacet
  facet normal 0 1 0
    outer loop
      vertex -22.5 31 2
      vertex -22 31 -1
      vertex -22.5 31 -1
    endloop
  endfacet
  facet normal 1 -0 0
    outer loop
      vertex -20 -26 -1
      vertex -20 26 -2
      vertex -20 26 -1
    endloop
  endfacet
  facet normal 1 0 0
    outer loop
      vertex -20 26 -2
      vertex -20 -26 -1
      vertex -20 -26 -2
    endloop
  endfacet
  facet normal -1 0 0
    outer loop
      vertex 20 -26 -2
      vertex 20 26 -1
      vertex 20 26 -2
    endloop
  endfacet
  facet normal -1 -0 0
    outer loop
      vertex 20 26 -1
      vertex 20 -26 -2
      vertex 20 -26 -1
    endloop
  endfacet
  facet normal 0 -1 0
    outer loop
      vertex -20 26 -2
      vertex 20 26 -1
      vertex -20 26 -1
    endloop
  endfacet
  facet normal 0 -1 -0
    outer loop
      vertex 20 26 -1
      vertex -20 26 -2
      vertex 20 26 -2
    endloop
  endfacet
  facet normal 0 1 -0
    outer loop
      vertex 20 -26 -2
      vertex -20 -26 -1
      vertex 20 -26 -1
    endloop
  endfacet
  facet normal 0 1 0
    outer loop
      vertex -20 -26 -1
      vertex 20 -26 -2
      vertex -20 -26 -2
    endloop
  endfacet
  facet normal 1 -0 0
    outer loop
      vertex -22 -28.5 2
      vertex -22 31 -1
      vertex -22 31 2
    endloop
  endfacet
  facet normal 1 0 0
    outer loop
      vertex -22 31 -1
      vertex -22 -28.5 2
      vertex -22 -28.5 -1
    endloop
  endfacet
  facet normal 0 0 1
    outer loop
      vertex 22 31 -1
      vertex 20 26 -1
      vertex 22 -28.5 -1
    endloop
  endfacet
  facet normal 0 0 1
    outer loop
      vertex 22 31 -1
      vertex -20 26 -1
      vertex 20 26 -1
    endloop
  endfacet
  facet normal 0 0 1
    outer loop
      vertex -22 -28.5 -1
      vertex -20 26 -1
      vertex -22 31 -1
    endloop
  endfacet
  facet normal -0 0 1
    outer loop
      vertex -22 31 -1
      vertex -20 26 -1
      vertex 22 31 -1
    endloop
  endfacet
  facet normal -0 0 1
    outer loop
      vertex 20 -26 -1
      vertex 22 -28.5 -1
      vertex 20 26 -1
    endloop
  endfacet
  facet normal -0 0 1
    outer loop
      vertex -20 -26 -1
      vertex 22 -28.5 -1
      vertex 20 -26 -1
    endloop
  endfacet
  facet normal 0 0 1
    outer loop
      vertex -20 -26 -1
      vertex -22 -28.5 -1
      vertex 22 -28.5 -1
    endloop
  endfacet
  facet normal 0 0 1
    outer loop
      vertex -20 26 -1
      vertex -22 -28.5 -1
      vertex -20 -26 -1
    endloop
  endfacet
  facet normal -1 0 0
    outer loop
      vertex 22 -28.5 -1
      vertex 22 31 2
      vertex 22 31 -1
    endloop
  endfacet
  facet normal -1 -0 0
    outer loop
      vertex 22 31 2
      vertex 22 -28.5 -1
      vertex 22 -28.5 2
    endloop
  endfacet
  facet normal 0 1 -0
    outer loop
      vertex 22 -28.5 -1
      vertex -22 -28.5 2
      vertex 22 -28.5 2
    endloop
  endfacet
  facet normal 0 1 0
    outer loop
      vertex -22 -28.5 2
      vertex 22 -28.5 -1
      vertex -22 -28.5 -1
    endloop
  endfacet
  facet normal 0 0 1
    outer loop
      vertex -22.5 31 -1
      vertex -25 31 -1
      vertex -22.5 -29 -1
    endloop
  endfacet
  facet normal 0 0 1
    outer loop
      vertex 22.5 -29 -1
      vertex 25 31 -1
      vertex 22.5 31 -1
    endloop
  endfacet
  facet normal 0 0 1
    outer loop
      vertex 25 31 -1
      vertex 22.5 -29 -1
      vertex 25 -31 -1
    endloop
  endfacet
  facet normal -0 0 1
    outer loop
      vertex -22.5 -29 -1
      vertex 25 -31 -1
      vertex 22.5 -29 -1
    endloop
  endfacet
  facet normal 0 0 1
    outer loop
      vertex -22.5 -29 -1
      vertex -25 -31 -1
      vertex 25 -31 -1
    endloop
  endfacet
  facet normal 0 0 1
    outer loop
      vertex -25 -31 -1
      vertex -22.5 -29 -1
      vertex -25 31 -1
    endloop
  endfacet
  facet normal 0 -1 0
    outer loop
      vertex -22.5 -29 -1
      vertex 22.5 -29 2
      vertex -22.5 -29 2
    endloop
  endfacet
  facet normal 0 -1 -0
    outer loop
      vertex 22.5 -29 2
      vertex -22.5 -29 -1
      vertex 22.5 -29 -1
    endloop
  endfacet
  facet normal -1 0 0
    outer loop
      vertex -22.5 -29 -1
      vertex -22.5 31 2
      vertex -22.5 31 -1
    endloop
  endfacet
  facet normal -1 -0 0
    outer loop
      vertex -22.5 31 2
      vertex -22.5 -29 -1
      vertex -22.5 -29 2
    endloop
  endfacet
  facet normal 1 -0 0
    outer loop
      vertex 22.5 -29 2
      vertex 22.5 31 -1
      vertex 22.5 31 2
    endloop
  endfacet
  facet normal 1 0 0
    outer loop
      vertex 22.5 31 -1
      vertex 22.5 -29 2
      vertex 22.5 -29 -1
    endloop
  endfacet
endsolid OpenSCAD_Model
