solid OpenSCAD_Model
  facet normal -1 0 0
    outer loop
      vertex -27.5 -33.5 -2
      vertex -27.5 33.5 -1
      vertex -27.5 33.5 -2
    endloop
  endfacet
  facet normal -1 -0 0
    outer loop
      vertex -27.5 33.5 -1
      vertex -27.5 -33.5 -2
      vertex -27.5 -33.5 -1
    endloop
  endfacet
  facet normal 0 0 -1
    outer loop
      vertex 27.5 -33.5 -2
      vertex 20 -26 -2
      vertex 27.5 33.5 -2
    endloop
  endfacet
  facet normal 0 0 -1
    outer loop
      vertex 27.5 -33.5 -2
      vertex -20 -26 -2
      vertex 20 -26 -2
    endloop
  endfacet
  facet normal -0 0 -1
    outer loop
      vertex -20 -26 -2
      vertex -27.5 -33.5 -2
      vertex -20 26 -2
    endloop
  endfacet
  facet normal 0 0 -1
    outer loop
      vertex -27.5 -33.5 -2
      vertex -20 -26 -2
      vertex 27.5 -33.5 -2
    endloop
  endfacet
  facet normal 0 0 -1
    outer loop
      vertex 20 26 -2
      vertex 27.5 33.5 -2
      vertex 20 -26 -2
    endloop
  endfacet
  facet normal 0 0 -1
    outer loop
      vertex -20 26 -2
      vertex 27.5 33.5 -2
      vertex 20 26 -2
    endloop
  endfacet
  facet normal 0 0 -1
    outer loop
      vertex -20 26 -2
      vertex -27.5 33.5 -2
      vertex 27.5 33.5 -2
    endloop
  endfacet
  facet normal 0 0 -1
    outer loop
      vertex -27.5 33.5 -2
      vertex -20 26 -2
      vertex -27.5 -33.5 -2
    endloop
  endfacet
  facet normal 1 -0 0
    outer loop
      vertex 27.5 -33.5 -1
      vertex 27.5 33.5 -2
      vertex 27.5 33.5 -1
    endloop
  endfacet
  facet normal 1 0 0
    outer loop
      vertex 27.5 33.5 -2
      vertex 27.5 -33.5 -1
      vertex 27.5 -33.5 -2
    endloop
  endfacet
  facet normal 0 0 1
    outer loop
      vertex -21.75 26 2
      vertex -22.5 26 2
      vertex -21.75 -28.5 2
    endloop
  endfacet
  facet normal 0 0 1
    outer loop
      vertex 21.75 -28.5 2
      vertex 22.5 26 2
      vertex 21.75 26 2
    endloop
  endfacet
  facet normal 0 0 1
    outer loop
      vertex 22.5 26 2
      vertex 21.75 -28.5 2
      vertex 22.5 -29 2
    endloop
  endfacet
  facet normal -0 0 1
    outer loop
      vertex -21.75 -28.5 2
      vertex 22.5 -29 2
      vertex 21.75 -28.5 2
    endloop
  endfacet
  facet normal 0 0 1
    outer loop
      vertex -21.75 -28.5 2
      vertex -22.5 -29 2
      vertex 22.5 -29 2
    endloop
  endfacet
  facet normal 0 0 1
    outer loop
      vertex -22.5 -29 2
      vertex -21.75 -28.5 2
      vertex -22.5 26 2
    endloop
  endfacet
  facet normal 0 1 -0
    outer loop
      vertex 27.5 33.5 -2
      vertex -27.5 33.5 -1
      vertex 27.5 33.5 -1
    endloop
  endfacet
  facet normal 0 1 0
    outer loop
      vertex -27.5 33.5 -1
      vertex 27.5 33.5 -2
      vertex -27.5 33.5 -2
    endloop
  endfacet
  facet normal 0 -1 0
    outer loop
      vertex -27.5 -33.5 -2
      vertex 27.5 -33.5 -1
      vertex -27.5 -33.5 -1
    endloop
  endfacet
  facet normal 0 -1 -0
    outer loop
      vertex 27.5 -33.5 -1
      vertex -27.5 -33.5 -2
      vertex 27.5 -33.5 -2
    endloop
  endfacet
  facet normal 1 -0 0
    outer loop
      vertex -20 -26 -1
      vertex -20 26 -2
      vertex -20 26 -1
    endloop
  endfacet
  facet normal 1 0 0
    outer loop
      vertex -20 26 -2
      vertex -20 -26 -1
      vertex -20 -26 -2
    endloop
  endfacet
  facet normal -1 0 0
    outer loop
      vertex 20 -26 -2
      vertex 20 26 -1
      vertex 20 26 -2
    endloop
  endfacet
  facet normal -1 -0 0
    outer loop
      vertex 20 26 -1
      vertex 20 -26 -2
      vertex 20 -26 -1
    endloop
  endfacet
  facet normal 0 -1 0
    outer loop
      vertex -20 26 -2
      vertex 20 26 -1
      vertex -20 26 -1
    endloop
  endfacet
  facet normal 0 -1 -0
    outer loop
      vertex 20 26 -1
      vertex -20 26 -2
      vertex 20 26 -2
    endloop
  endfacet
  facet normal 0 1 -0
    outer loop
      vertex 20 -26 -2
      vertex -20 -26 -1
      vertex 20 -26 -1
    endloop
  endfacet
  facet normal 0 1 0
    outer loop
      vertex -20 -26 -1
      vertex 20 -26 -2
      vertex -20 -26 -2
    endloop
  endfacet
  facet normal 1 -0 0
    outer loop
      vertex -21.75 -28.5 2
      vertex -21.75 26 -1
      vertex -21.75 26 2
    endloop
  endfacet
  facet normal 1 0 0
    outer loop
      vertex -21.75 26 -1
      vertex -21.75 -28.5 2
      vertex -21.75 -28.5 -1
    endloop
  endfacet
  facet normal 0 0 1
    outer loop
      vertex 27.5 33.5 -1
      vertex 22.5 26 -1
      vertex 27.5 -33.5 -1
    endloop
  endfacet
  facet normal 0 0 1
    outer loop
      vertex 27.5 33.5 -1
      vertex 21.75 26 -1
      vertex 22.5 26 -1
    endloop
  endfacet
  facet normal 0 0 1
    outer loop
      vertex 20 -26 -1
      vertex 21.75 26 -1
      vertex 20 26 -1
    endloop
  endfacet
  facet normal 0 0 1
    outer loop
      vertex 27.5 33.5 -1
      vertex 20 26 -1
      vertex 21.75 26 -1
    endloop
  endfacet
  facet normal 0 0 1
    outer loop
      vertex 27.5 33.5 -1
      vertex -20 26 -1
      vertex 20 26 -1
    endloop
  endfacet
  facet normal 0 0 1
    outer loop
      vertex -20 26 -1
      vertex -21.75 26 -1
      vertex -20 -26 -1
    endloop
  endfacet
  facet normal -0 0 1
    outer loop
      vertex -27.5 33.5 -1
      vertex -20 26 -1
      vertex 27.5 33.5 -1
    endloop
  endfacet
  facet normal 0 0 1
    outer loop
      vertex -20 26 -1
      vertex -27.5 33.5 -1
      vertex -21.75 26 -1
    endloop
  endfacet
  facet normal 0 0 1
    outer loop
      vertex -27.5 -33.5 -1
      vertex -22.5 26 -1
      vertex -27.5 33.5 -1
    endloop
  endfacet
  facet normal 0 0 1
    outer loop
      vertex -21.75 26 -1
      vertex -27.5 33.5 -1
      vertex -22.5 26 -1
    endloop
  endfacet
  facet normal -0 0 1
    outer loop
      vertex 22.5 -29 -1
      vertex 27.5 -33.5 -1
      vertex 22.5 26 -1
    endloop
  endfacet
  facet normal -0 0 1
    outer loop
      vertex -22.5 -29 -1
      vertex 27.5 -33.5 -1
      vertex 22.5 -29 -1
    endloop
  endfacet
  facet normal 0 0 1
    outer loop
      vertex -22.5 -29 -1
      vertex -27.5 -33.5 -1
      vertex 27.5 -33.5 -1
    endloop
  endfacet
  facet normal 0 0 1
    outer loop
      vertex -22.5 26 -1
      vertex -27.5 -33.5 -1
      vertex -22.5 -29 -1
    endloop
  endfacet
  facet normal 0 0 1
    outer loop
      vertex 21.75 26 -1
      vertex 20 -26 -1
      vertex 21.75 -28.5 -1
    endloop
  endfacet
  facet normal -0 0 1
    outer loop
      vertex -20 -26 -1
      vertex 21.75 -28.5 -1
      vertex 20 -26 -1
    endloop
  endfacet
  facet normal 0 0 1
    outer loop
      vertex -20 -26 -1
      vertex -21.75 -28.5 -1
      vertex 21.75 -28.5 -1
    endloop
  endfacet
  facet normal 0 0 1
    outer loop
      vertex -21.75 -28.5 -1
      vertex -20 -26 -1
      vertex -21.75 26 -1
    endloop
  endfacet
  facet normal -1 0 0
    outer loop
      vertex 21.75 -28.5 -1
      vertex 21.75 26 2
      vertex 21.75 26 -1
    endloop
  endfacet
  facet normal -1 -0 0
    outer loop
      vertex 21.75 26 2
      vertex 21.75 -28.5 -1
      vertex 21.75 -28.5 2
    endloop
  endfacet
  facet normal 0 1 -0
    outer loop
      vertex 21.75 -28.5 -1
      vertex -21.75 -28.5 2
      vertex 21.75 -28.5 2
    endloop
  endfacet
  facet normal 0 1 0
    outer loop
      vertex -21.75 -28.5 2
      vertex 21.75 -28.5 -1
      vertex -21.75 -28.5 -1
    endloop
  endfacet
  facet normal 0 -1 0
    outer loop
      vertex -22.5 -29 -1
      vertex 22.5 -29 2
      vertex -22.5 -29 2
    endloop
  endfacet
  facet normal 0 -1 -0
    outer loop
      vertex 22.5 -29 2
      vertex -22.5 -29 -1
      vertex 22.5 -29 -1
    endloop
  endfacet
  facet normal -1 0 0
    outer loop
      vertex -22.5 -29 -1
      vertex -22.5 26 2
      vertex -22.5 26 -1
    endloop
  endfacet
  facet normal -1 -0 0
    outer loop
      vertex -22.5 26 2
      vertex -22.5 -29 -1
      vertex -22.5 -29 2
    endloop
  endfacet
  facet normal 1 -0 0
    outer loop
      vertex 22.5 -29 2
      vertex 22.5 26 -1
      vertex 22.5 26 2
    endloop
  endfacet
  facet normal 1 0 0
    outer loop
      vertex 22.5 26 -1
      vertex 22.5 -29 2
      vertex 22.5 -29 -1
    endloop
  endfacet
  facet normal 0 1 -0
    outer loop
      vertex -21.75 26 -1
      vertex -22.5 26 2
      vertex -21.75 26 2
    endloop
  endfacet
  facet normal 0 1 0
    outer loop
      vertex -22.5 26 2
      vertex -21.75 26 -1
      vertex -22.5 26 -1
    endloop
  endfacet
  facet normal 0 1 -0
    outer loop
      vertex 22.5 26 -1
      vertex 21.75 26 2
      vertex 22.5 26 2
    endloop
  endfacet
  facet normal 0 1 0
    outer loop
      vertex 21.75 26 2
      vertex 22.5 26 -1
      vertex 21.75 26 -1
    endloop
  endfacet
endsolid OpenSCAD_Model
